<?xml version="1.0" standalone="no"?>
<!DOCTYPE svg PUBLIC "-//W3C//DTD SVG 20010904//EN"
 "http://www.w3.org/TR/2001/REC-SVG-20010904/DTD/svg10.dtd">
<svg version="1.0" xmlns="http://www.w3.org/2000/svg"
 width="691.000000pt" height="691.000000pt" viewBox="0 0 691.000000 691.000000"
 preserveAspectRatio="xMidYMid meet">
<metadata>
Created by potrace 1.14, written by Peter Selinger 2001-2017
</metadata>
<g transform="translate(0.000000,691.000000) scale(0.100000,-0.100000)"
fill="#000000" stroke="none">
<path d="M2909 5643 c-1 -4 -1 -11 0 -15 0 -5 -3 -8 -9 -8 -5 0 -10 5 -10 10
0 6 -5 10 -11 10 -5 0 -7 -4 -4 -10 3 -5 1 -10 -4 -10 -6 0 -11 -4 -11 -10 0
-5 8 -7 18 -4 11 4 9 -1 -8 -16 -14 -12 -19 -19 -12 -15 6 3 12 2 12 -2 0 -5
-6 -15 -12 -22 -11 -11 -10 -13 4 -8 12 4 15 2 12 -8 -3 -7 -15 -12 -26 -10
-11 3 -17 1 -14 -3 4 -4 13 -7 19 -7 5 0 11 -10 12 -22 1 -17 -1 -20 -11 -12
-9 8 -11 5 -7 -10 3 -12 9 -18 14 -15 5 3 9 1 9 -4 0 -15 -13 -22 -24 -13 -8
7 -11 -13 -11 -69 0 -43 3 -76 7 -73 8 4 12 -12 9 -31 -1 -4 4 -15 11 -24 10
-12 10 -14 1 -8 -16 9 -17 -16 -2 -31 8 -8 6 -14 -9 -22 -10 -6 -23 -7 -27 -3
-4 4 -3 -3 3 -14 6 -12 8 -25 4 -29 -4 -5 -1 -5 6 -1 11 7 17 -5 13 -28 -1 -4
4 -15 11 -24 10 -12 10 -14 1 -8 -16 9 -17 -16 -2 -31 8 -8 6 -14 -9 -22 -10
-6 -22 -7 -26 -3 -4 3 -3 -5 2 -18 5 -14 8 -35 6 -47 -2 -13 0 -23 5 -23 5 0
7 18 5 41 -2 23 0 38 5 34 6 -3 8 -14 6 -25 -2 -11 1 -22 6 -26 7 -4 7 -10 0
-18 -5 -6 -8 -33 -6 -59 2 -26 0 -47 -4 -47 -5 0 -7 14 -6 30 1 17 -2 33 -8
37 -5 3 -7 1 -3 -5 3 -6 2 -14 -4 -17 -7 -4 -7 -11 -2 -18 5 -7 8 -24 7 -39
-1 -15 2 -25 7 -22 7 5 10 -3 7 -22 0 -4 5 -11 13 -15 8 -6 9 -9 1 -9 -12 0
-12 -24 0 -36 4 -4 2 -14 -5 -21 -9 -11 -9 -17 3 -24 11 -7 11 -9 -3 -9 -10 0
-18 5 -18 12 0 6 -3 8 -6 5 -4 -4 -2 -12 3 -19 5 -7 13 -22 17 -32 5 -16 4
-17 -9 -6 -12 10 -15 10 -15 -4 0 -9 8 -16 18 -17 10 0 12 -3 4 -6 -6 -2 -10
-8 -7 -13 3 -4 -2 -13 -10 -20 -7 -6 -11 -19 -8 -27 5 -12 3 -14 -7 -8 -9 6
-11 4 -6 -4 5 -7 0 -19 -10 -27 -17 -14 -17 -15 -2 -10 10 3 20 0 24 -6 4 -7
3 -8 -4 -4 -12 7 -17 -12 -12 -43 1 -9 -4 -12 -14 -8 -9 4 -15 3 -15 -1 4 -27
-3 -52 -12 -46 -6 3 -3 -6 7 -22 18 -28 18 -29 -1 -14 -11 9 -16 10 -11 3 4
-8 2 -13 -6 -13 -8 -1 -7 -4 4 -10 13 -8 14 -14 5 -35 -7 -14 -16 -25 -20 -25
-5 0 -6 4 -2 9 3 5 2 12 -2 14 -5 3 -9 -13 -10 -36 -2 -22 -9 -44 -15 -49 -10
-6 -10 -10 2 -18 10 -6 11 -10 3 -10 -7 0 -13 -7 -13 -16 0 -12 -7 -15 -25
-12 -21 4 -23 3 -15 -13 7 -12 6 -20 -2 -25 -6 -4 -8 -3 -5 3 4 6 -5 15 -19
22 -15 6 -23 7 -19 1 3 -5 1 -10 -4 -10 -6 0 -11 5 -11 11 0 8 -5 8 -15 -1
-18 -15 -20 1 -2 19 6 8 0 6 -15 -3 -20 -13 -28 -14 -34 -5 -5 8 -3 9 6 4 9
-5 11 -4 6 4 -5 7 -12 9 -19 3 -16 -12 -28 -9 -59 12 -15 10 -32 15 -37 11 -6
-3 -8 0 -5 9 6 16 -19 17 -33 1 -4 -4 -2 -5 6 0 10 6 12 4 6 -5 -6 -10 -11
-10 -20 3 -14 20 -30 23 -19 5 5 -9 2 -8 -10 1 -12 10 -13 16 -6 21 8 5 6 9
-5 13 -9 4 -13 3 -10 -3 3 -6 1 -10 -5 -10 -6 0 -8 -5 -4 -12 4 -7 3 -8 -5 -4
-6 4 -9 10 -7 14 2 4 -3 14 -12 22 -14 13 -15 12 -9 -3 3 -9 2 -19 -4 -22 -5
-4 -8 -1 -7 7 2 7 -5 12 -14 12 -10 -1 -16 2 -13 6 3 4 -2 11 -11 14 -8 3 -12
2 -9 -4 3 -6 2 -10 -4 -10 -5 0 -13 5 -16 11 -4 5 -12 8 -18 6 -7 -2 -20 5
-29 16 -10 11 -18 16 -18 11 0 -6 5 -15 11 -21 8 -8 8 -13 0 -18 -7 -3 -10 -1
-9 6 2 7 -3 14 -9 15 -7 1 -18 2 -24 3 -5 0 -7 6 -4 11 6 11 -5 13 -42 10 -13
-1 -28 2 -35 6 -20 13 -70 15 -63 3 4 -6 -2 -5 -13 2 -11 7 -19 17 -18 23 2 6
1 8 -2 3 -2 -4 -12 -11 -21 -17 -13 -6 -18 -5 -18 5 0 8 4 12 8 9 4 -2 10 0
13 5 3 4 -12 7 -34 6 -22 -2 -37 1 -34 6 3 5 -7 4 -22 -1 -22 -9 -25 -8 -20 5
4 13 2 14 -14 5 -15 -8 -20 -8 -20 1 0 8 -4 8 -15 -1 -12 -10 -14 -8 -10 7 2
12 -2 20 -10 20 -7 0 -11 -6 -8 -14 3 -7 0 -13 -6 -13 -10 0 -15 13 -13 31 1
4 -9 2 -23 -4 -13 -7 -21 -16 -18 -21 4 -5 1 -6 -6 -2 -9 6 -9 11 -1 21 8 10
8 15 -1 21 -8 4 -9 3 -5 -4 9 -15 1 -15 -25 -2 -12 7 -19 7 -19 1 0 -5 8 -12
18 -14 9 -3 5 -4 -10 -4 -15 1 -24 6 -21 11 4 5 -1 7 -10 3 -10 -4 -20 0 -26
11 -9 15 -10 15 -11 -3 -1 -11 -4 -14 -7 -7 -2 6 -9 10 -14 6 -5 -3 -9 0 -9 5
0 6 -5 11 -11 11 -5 0 -8 -4 -5 -8 3 -5 -1 -9 -10 -9 -10 0 -12 7 -8 20 4 13
2 17 -5 13 -6 -4 -11 -14 -11 -22 0 -8 -4 -13 -9 -9 -6 3 -8 15 -6 26 3 16 1
18 -9 10 -7 -6 -17 -7 -21 -3 -5 4 -5 1 -1 -6 4 -7 12 -9 18 -6 7 5 8 2 3 -5
-4 -7 -15 -11 -25 -8 -13 3 -17 0 -13 -10 3 -8 12 -12 19 -9 9 3 11 0 7 -11
-4 -11 -2 -14 5 -9 8 5 11 -2 8 -23 -2 -19 2 -35 12 -43 13 -11 14 -11 7 2 -8
13 -7 13 8 1 10 -8 15 -16 12 -19 -3 -3 1 -12 8 -20 9 -13 9 -14 0 -8 -9 5
-11 2 -7 -8 3 -9 11 -13 18 -9 8 4 8 2 -1 -7 -13 -14 3 -63 18 -54 5 3 9 -6 9
-20 0 -20 4 -24 18 -19 15 5 14 4 -2 -9 -15 -12 -16 -17 -6 -23 9 -6 11 -4 5
5 -5 9 -4 11 4 6 9 -6 9 -11 0 -22 -9 -11 -8 -15 5 -20 9 -3 16 -10 16 -16 0
-5 -6 -6 -12 -3 -7 4 0 -5 16 -18 23 -20 26 -28 18 -44 -9 -15 -8 -20 3 -20 8
0 12 3 10 7 -2 4 2 7 10 7 12 0 12 -3 3 -15 -19 -22 -18 -64 0 -57 12 5 13 3
2 -10 -7 -9 -9 -15 -4 -14 5 1 16 1 24 0 13 -1 13 -2 0 -11 -13 -9 -13 -10 0
-11 8 -1 19 -1 23 0 5 1 6 -3 2 -9 -3 -5 -2 -10 3 -10 6 0 13 -7 16 -16 3 -8
2 -12 -3 -9 -5 3 -12 1 -16 -5 -3 -5 0 -10 8 -10 8 0 18 -7 21 -16 3 -8 2 -13
-2 -10 -4 3 -8 -6 -8 -19 0 -15 5 -21 13 -18 8 3 13 2 12 -3 -4 -26 2 -45 14
-38 10 6 10 4 0 -7 -7 -7 -13 -18 -13 -23 0 -6 5 -4 10 4 9 13 10 13 10 -1 0
-8 -6 -21 -12 -29 -11 -12 -10 -12 3 -2 14 10 19 8 33 -12 15 -23 15 -26 -2
-36 -16 -10 -15 -10 3 -9 34 2 38 0 24 -17 -8 -10 -9 -18 -2 -22 11 -8 33 -47
33 -59 -1 -4 -7 3 -16 17 l-15 25 7 -25 c4 -14 11 -26 15 -28 13 -5 11 -30 -3
-35 -10 -4 -10 -6 0 -6 7 -1 11 -5 8 -9 -3 -5 1 -9 9 -9 11 0 12 4 4 14 -8 9
-8 13 0 13 6 0 11 -3 12 -7 0 -5 2 -16 4 -26 2 -9 -1 -15 -6 -11 -5 3 -9 0 -9
-5 0 -6 7 -11 16 -11 14 0 14 -3 4 -15 -7 -9 -8 -15 -2 -15 6 0 9 -11 7 -25
-1 -14 2 -25 6 -25 5 0 9 5 9 10 0 6 5 10 11 10 8 0 8 -5 -1 -15 -11 -14 -7
-19 13 -16 11 2 8 -5 -9 -19 -12 -11 -15 -11 -12 0 2 7 -4 15 -12 17 -12 4
-12 3 -2 -5 8 -5 13 -12 13 -16 -3 -23 0 -30 9 -16 5 8 12 12 15 8 3 -3 -1
-13 -10 -22 -9 -9 -13 -16 -8 -16 5 0 14 5 20 11 7 7 9 3 6 -15 -3 -15 -10
-29 -16 -33 -6 -3 -7 -1 -3 6 4 7 -9 3 -29 -8 -20 -11 -45 -18 -54 -16 -10 2
-18 -3 -18 -10 0 -8 5 -11 11 -7 17 10 37 11 30 1 -3 -5 -9 -7 -14 -4 -5 3
-11 1 -14 -3 -3 -5 -18 -7 -32 -4 -21 4 -25 2 -19 -9 7 -12 6 -12 -7 -1 -10 8
-18 9 -22 3 -4 -6 -13 -8 -21 -4 -10 3 -15 -1 -15 -13 0 -15 2 -16 9 -5 6 9
11 10 15 2 7 -10 -6 -16 -27 -12 -4 1 -17 -4 -28 -10 -15 -8 -24 -7 -35 2 -11
9 -14 8 -14 -4 0 -11 -5 -14 -17 -10 -16 6 -16 5 -4 -10 12 -15 12 -17 -2 -12
-8 4 -18 2 -21 -4 -4 -6 -14 -7 -23 -4 -12 5 -14 3 -8 -8 7 -12 6 -12 -7 -1
-13 10 -18 10 -24 1 -5 -8 -3 -9 6 -4 9 5 11 4 6 -4 -6 -9 -11 -9 -21 -1 -9 7
-16 6 -26 -7 -12 -14 -12 -16 0 -8 10 5 12 4 7 -3 -4 -7 -16 -12 -26 -12 -10
0 -20 -5 -22 -11 -2 -6 -18 -12 -35 -12 -27 -2 -30 -4 -22 -19 6 -10 6 -18 2
-17 -27 5 -73 -3 -73 -12 0 -5 6 -7 13 -3 6 4 4 -2 -7 -14 -16 -19 -36 -22
-36 -6 0 3 5 2 12 -2 7 -5 8 -3 3 6 -6 9 -4 11 5 5 9 -5 11 -4 6 4 -11 17 -39
-7 -31 -27 4 -10 0 -13 -14 -9 -28 7 -49 -9 -22 -18 11 -3 21 -11 21 -16 0 -6
-7 -6 -19 1 -14 7 -22 7 -27 -1 -3 -6 -15 -8 -26 -6 -16 5 -17 3 -7 -9 7 -8 8
-14 3 -13 -5 1 -19 1 -31 0 -17 -1 -21 -5 -16 -18 4 -11 3 -14 -5 -9 -20 12
-13 -9 7 -24 11 -7 18 -17 16 -20 -2 -4 6 -6 18 -5 12 1 28 -2 35 -8 6 -5 12
-6 12 -2 0 4 7 2 15 -5 9 -7 18 -10 22 -6 3 3 1 6 -5 6 -7 0 -12 5 -12 11 0 6
5 7 13 2 6 -4 16 -8 21 -8 5 0 11 -7 13 -15 4 -13 3 -13 -7 0 -9 12 -11 12 -8
1 6 -21 28 -26 28 -6 0 14 3 15 15 5 8 -6 20 -8 26 -4 8 5 9 3 5 -5 -5 -7 -14
-10 -22 -7 -8 3 -11 0 -8 -8 3 -9 18 -12 40 -9 20 2 33 0 30 -6 -3 -5 1 -12
10 -15 8 -3 12 -2 9 4 -3 6 -1 10 4 10 6 0 11 -5 11 -11 0 -5 6 -7 13 -3 8 5
8 2 -2 -9 -8 -10 -9 -17 -3 -17 6 0 14 5 17 11 5 6 12 4 22 -8 8 -10 11 -12 7
-4 -5 10 -3 12 5 7 7 -5 10 -14 7 -22 -3 -8 -1 -14 4 -14 6 0 10 8 10 18 0 13
2 14 9 3 5 -7 14 -10 20 -7 6 4 11 3 11 -3 0 -5 -8 -12 -17 -14 -13 -3 -12 -5
5 -6 13 0 30 -8 39 -16 11 -12 19 -13 28 -5 16 13 30 -4 19 -22 -5 -9 -2 -9 9
1 15 12 17 11 17 -10 0 -19 2 -21 10 -9 8 13 14 8 12 -10 0 -3 9 -7 21 -7 17
-2 18 0 7 7 -8 5 -12 12 -8 15 3 3 13 -1 22 -10 9 -9 22 -13 28 -9 10 6 11 4
1 -7 -15 -16 -17 -33 -3 -24 5 3 10 1 10 -6 0 -8 4 -9 13 0 10 8 14 7 15 -4 1
-8 3 -22 4 -29 1 -8 4 -15 7 -14 18 2 31 -3 31 -13 0 -5 -4 -7 -10 -4 -6 3 -7
-1 -4 -9 3 -9 11 -13 18 -10 6 3 0 -4 -14 -16 -17 -15 -20 -21 -8 -18 9 1 17
-1 17 -7 1 -5 -3 -10 -7 -10 -5 0 -16 -8 -26 -18 -20 -20 -14 -22 17 -6 l22
12 -20 -20 c-11 -11 -24 -18 -29 -15 -5 3 -7 -1 -4 -10 4 -8 0 -15 -8 -15 -7
0 -11 5 -8 11 3 6 -4 0 -16 -14 -12 -14 -19 -20 -16 -14 9 18 -22 25 -38 9
-17 -17 -30 -20 -21 -5 4 6 -3 9 -17 6 -13 -2 -29 1 -36 7 -10 8 -12 7 -10 -4
2 -8 7 -17 11 -20 5 -3 2 -9 -7 -12 -9 -4 -15 -3 -15 1 3 19 -2 29 -16 29 -18
0 -20 -14 -3 -19 8 -3 6 -7 -5 -11 -9 -3 -16 -3 -16 1 3 19 -2 29 -16 29 -18
0 -20 -13 -2 -21 6 -3 0 -3 -15 -1 -16 2 -28 0 -28 -4 0 -3 -16 -7 -35 -7 -27
0 -34 4 -30 15 4 11 3 12 -10 1 -13 -11 -58 -20 -112 -22 -13 0 -21 -4 -18 -8
2 -3 -2 -7 -10 -7 -8 0 -12 4 -9 9 11 18 -9 6 -32 -19 -14 -16 -23 -23 -20
-16 8 15 -30 37 -39 24 -3 -6 -14 -8 -25 -6 -11 2 -20 0 -20 -6 0 -10 28 -8
47 4 6 4 14 3 18 -3 5 -9 -15 -15 -37 -11 -5 0 -8 -4 -8 -11 0 -9 -3 -9 -12 0
-9 9 -15 9 -27 -1 -12 -9 -13 -9 -7 1 4 7 2 12 -4 12 -6 0 -8 6 -5 13 4 6 -1
3 -9 -7 -13 -16 -16 -17 -16 -4 0 17 -26 32 -34 20 -3 -5 -1 -14 5 -22 7 -13
9 -13 9 -1 0 8 3 12 6 8 12 -11 -7 -28 -20 -18 -13 11 -47 8 -68 -5 -7 -4 -8
-3 -4 4 4 7 2 12 -3 12 -6 0 -11 -5 -11 -11 0 -8 -4 -8 -14 0 -11 9 -14 8 -12
-5 0 -9 -7 -18 -16 -19 -10 -2 -18 0 -18 4 0 12 -34 9 -50 -4 -26 -21 -40 -26
-40 -16 0 6 7 11 15 11 8 0 15 5 15 10 0 6 -4 10 -10 10 -12 0 -50 -41 -50
-54 0 -5 -3 -6 -6 -3 -4 4 -2 12 4 20 8 10 7 13 -7 13 -10 0 -17 -5 -15 -11 2
-5 -6 -16 -18 -24 -21 -13 -22 -13 -9 2 8 10 9 17 3 17 -6 0 -14 -4 -17 -10
-3 -5 -11 -10 -16 -10 -6 0 -7 5 -4 10 9 15 0 12 -23 -9 -12 -10 -18 -22 -14
-27 4 -4 0 -3 -8 3 -11 9 -20 8 -34 -3 -11 -8 -25 -14 -30 -14 -6 0 -5 4 3 9
10 7 7 9 -12 8 -18 -2 -23 -5 -16 -14 8 -8 2 -10 -21 -6 -21 3 -30 1 -26 -6 5
-7 1 -8 -9 -5 -13 5 -13 9 -3 23 8 9 3 8 -11 -4 -13 -11 -26 -19 -30 -18 -3 1
-8 -1 -11 -4 -3 -4 2 -3 10 2 12 6 13 5 3 -5 -16 -17 -43 -22 -43 -8 0 6 7 8
14 5 10 -4 13 -1 10 7 -5 12 -34 19 -32 7 2 -20 -3 -31 -12 -26 -6 4 -7 11 -4
17 4 7 2 8 -5 4 -7 -5 -9 -16 -5 -29 6 -19 5 -20 -10 -8 -12 10 -16 10 -16 1
0 -10 -3 -10 -15 0 -13 11 -14 10 -9 -5 6 -15 4 -16 -14 -6 -26 14 -29 4 -5
-16 16 -13 16 -13 -3 -4 -12 6 -24 8 -27 4 -4 -3 -14 0 -23 8 -16 13 -16 12
-5 -9 12 -22 11 -23 -8 -13 -17 10 -20 9 -15 -4 4 -9 3 -15 -2 -14 -19 3 -37
-1 -31 -8 4 -3 -1 -12 -11 -20 -9 -8 -11 -12 -4 -8 6 3 12 1 12 -4 0 -6 -5
-11 -11 -11 -8 0 -8 -4 0 -14 9 -11 9 -16 0 -22 -8 -4 -9 -3 -5 4 4 7 3 12 -3
12 -5 0 -12 -8 -14 -17 -4 -16 -5 -15 -6 1 -1 20 -1 20 -17 0 -8 -10 -12 -13
-9 -6 6 12 3 12 -16 1 -13 -7 -27 -12 -31 -11 -4 1 -4 -6 -1 -15 5 -12 2 -15
-14 -11 -16 4 -19 1 -15 -18 2 -13 9 -21 15 -17 6 4 7 1 2 -7 -6 -10 -11 -9
-21 5 -12 16 -13 16 -11 -3 0 -11 5 -18 9 -16 4 3 8 0 8 -6 0 -6 4 -9 9 -6 5
3 11 -1 14 -9 4 -9 1 -12 -7 -9 -8 3 -17 1 -21 -5 -3 -7 0 -8 9 -5 9 4 18 -1
22 -10 3 -9 10 -16 16 -16 5 0 7 4 4 9 -4 5 2 8 11 6 10 -2 20 -4 23 -4 3 -1
0 -5 -6 -9 -8 -5 -7 -11 4 -22 14 -13 15 -12 9 3 -4 11 -1 17 9 17 9 0 12 5 8
13 -5 9 -4 9 5 1 7 -6 13 -20 14 -32 0 -11 5 -18 9 -16 4 3 8 0 8 -7 0 -7 3
-10 6 -7 3 4 1 17 -6 30 -11 22 -10 22 4 4 9 -11 16 -23 16 -27 0 -4 12 -4 28
0 33 10 55 4 45 -12 -3 -7 3 -4 15 7 19 17 22 17 28 2 3 -9 10 -14 14 -11 5 3
12 0 16 -6 5 -8 3 -9 -6 -4 -8 5 -11 4 -6 -3 4 -6 13 -9 21 -6 8 4 12 11 8 17
-3 6 -1 7 6 3 9 -6 9 -11 1 -21 -10 -12 -6 -13 19 -5 23 6 31 5 31 -4 0 -7 7
-13 15 -13 11 0 12 4 3 14 -8 11 -7 12 6 7 9 -3 16 -10 16 -15 0 -5 7 -9 16
-9 9 0 12 5 8 12 -4 7 -3 8 4 4 7 -4 12 -14 12 -22 0 -8 4 -13 9 -9 5 3 16 -2
24 -10 9 -8 19 -15 24 -15 4 1 -5 12 -22 25 -16 14 -27 25 -24 25 9 0 80 -58
80 -64 -2 -20 1 -26 13 -26 7 0 20 -8 27 -17 10 -11 10 -14 2 -9 -9 4 -13 1
-13 -9 0 -12 5 -15 16 -11 12 5 15 2 10 -11 -4 -10 -4 -14 0 -10 4 4 13 2 20
-4 10 -9 15 -7 20 5 3 9 10 13 15 10 5 -3 7 -11 3 -17 -3 -7 2 -3 10 7 9 11
16 14 16 7 0 -7 5 -9 10 -6 6 3 15 -6 20 -20 5 -14 15 -23 20 -20 6 4 18 1 27
-7 12 -9 15 -9 9 0 -5 9 2 12 28 12 19 0 37 6 40 13 3 6 3 2 0 -10 -3 -13 -1
-23 5 -23 6 0 11 7 11 15 0 8 5 15 11 15 5 0 8 -4 4 -9 -3 -6 3 -9 12 -9 10 0
27 -3 37 -7 13 -6 17 -5 12 3 -3 6 -1 14 5 18 7 4 9 3 5 -4 -3 -6 -2 -13 4
-17 5 -3 10 -1 10 5 0 6 5 8 10 5 6 -4 7 -11 4 -17 -4 -7 -2 -8 5 -4 6 4 9 12
6 17 -4 5 -1 9 4 9 6 0 11 -5 11 -11 0 -8 4 -8 13 -1 18 15 29 15 38 0 7 -10
9 -10 9 0 0 6 5 12 11 12 5 0 8 -4 5 -9 -3 -5 6 -8 19 -8 14 0 25 4 25 9 0 6
7 5 15 -2 8 -7 29 -10 45 -8 17 3 34 0 37 -5 3 -6 1 -7 -5 -3 -7 4 -12 2 -12
-3 0 -20 20 -11 30 12 l9 22 0 -22 c1 -13 5 -23 11 -23 5 0 7 6 4 13 -5 14 41
16 53 2 5 -4 3 -6 -2 -2 -6 3 -17 2 -24 -3 -9 -5 -3 -7 17 -7 16 1 28 6 26 12
-4 10 44 13 62 4 5 -3 19 -4 31 -3 12 0 20 -3 17 -7 -3 -5 2 -9 11 -9 10 0 13
-5 9 -12 -6 -10 -5 -10 7 -1 12 10 18 10 29 0 10 -9 11 -9 6 1 -5 8 0 12 13
12 11 0 22 4 25 8 3 5 22 8 43 7 31 -1 38 -5 36 -20 -1 -17 1 -17 16 4 10 13
24 21 32 18 10 -4 9 -6 -3 -6 -20 -1 -24 -16 -6 -27 7 -4 8 -3 4 4 -4 7 -3 12
3 12 5 0 12 -4 15 -9 7 -11 25 -9 45 3 9 6 12 5 7 -2 -3 -6 -1 -14 5 -18 7 -4
9 -3 5 4 -3 6 -2 13 4 17 5 3 10 1 10 -4 0 -6 5 -11 11 -11 5 0 8 4 5 8 -3 5
1 9 9 9 8 0 12 -4 9 -9 -3 -4 -2 -8 3 -9 4 0 16 -2 26 -4 9 -2 15 1 12 5 -3 5
-1 11 5 15 5 3 10 -1 10 -9 0 -11 6 -13 28 -6 16 4 36 4 45 -2 10 -5 17 -6 17
-3 0 4 7 -1 16 -9 8 -9 19 -14 24 -11 5 3 11 -1 14 -7 3 -7 4 -4 3 6 -1 14 5
19 25 20 14 1 26 -1 26 -4 -2 -27 3 -32 17 -14 11 13 13 14 9 3 -3 -10 1 -19
11 -23 9 -3 14 -2 11 3 -3 5 1 12 10 15 11 4 15 2 11 -6 -4 -12 10 -16 56 -18
6 0 36 2 65 4 43 3 52 1 52 -13 0 -11 8 -17 24 -17 14 0 22 4 20 8 -3 5 -9 6
-14 3 -5 -3 -11 -2 -13 2 -6 10 100 9 109 0 4 -4 14 -1 23 5 13 10 14 10 4 -2
-19 -21 -16 -26 17 -24 17 1 30 -2 30 -8 0 -5 4 -7 10 -3 5 3 7 13 4 23 -5 15
-4 15 6 -1 6 -9 15 -15 21 -12 5 4 9 2 9 -3 0 -11 30 -9 49 3 11 6 13 4 7 -10
-5 -14 -4 -16 7 -7 7 6 23 10 36 7 12 -2 19 0 16 6 -4 5 -1 9 4 9 6 0 11 -6
11 -14 0 -8 4 -17 9 -20 5 -3 8 2 7 10 -1 22 30 26 46 6 7 -9 8 -13 3 -10 -6
4 -17 2 -25 -4 -13 -8 -12 -9 1 -5 9 3 26 -1 38 -9 13 -10 21 -11 21 -4 0 6 8
9 18 6 21 -7 49 8 33 18 -6 4 -11 3 -11 -2 0 -5 -13 -9 -30 -9 -24 0 -30 5
-30 21 0 13 3 17 8 9 4 -6 21 -10 37 -8 21 2 35 -3 48 -18 13 -16 20 -18 24
-9 4 10 8 10 21 0 12 -11 16 -11 20 0 3 9 8 10 17 2 7 -6 23 -8 36 -6 13 3 27
5 32 5 19 2 4 17 -17 17 -14 0 -22 -4 -20 -8 3 -4 -2 -8 -11 -8 -9 0 -14 4
-11 9 7 10 -13 9 -31 -2 -6 -4 -15 -3 -18 3 -5 8 -11 7 -21 -1 -11 -9 -14 -8
-14 3 0 11 20 14 99 13 72 0 97 -3 94 -12 -3 -6 -12 -9 -21 -6 -13 4 -12 2 3
-10 13 -10 26 -12 42 -6 13 5 23 5 23 0 0 -12 100 -5 113 9 9 8 5 10 -15 6
-15 -2 -32 -7 -38 -11 -5 -3 -7 0 -5 7 4 9 22 14 49 14 25 -1 42 -4 40 -8 -3
-5 -1 -8 5 -8 5 0 11 5 13 12 3 7 7 5 11 -6 4 -9 3 -15 -2 -11 -5 3 -12 1 -15
-3 -6 -10 56 -8 73 2 6 4 11 2 11 -4 0 -8 6 -8 21 0 11 7 18 17 16 24 -3 7 1
13 9 13 7 0 11 -4 8 -8 -2 -4 2 -10 8 -12 8 -3 6 -6 -4 -6 -10 -1 -18 -5 -18
-9 0 -10 93 -8 109 2 6 4 9 11 6 16 -3 4 3 7 12 5 10 -1 17 -9 15 -19 -2 -9 2
-16 8 -16 6 0 8 5 5 10 -3 6 4 10 17 11 l23 0 -22 9 c-31 13 -29 18 3 12 20
-4 25 -2 19 8 -5 8 -4 11 3 6 6 -4 9 -13 5 -21 -3 -8 0 -15 6 -15 6 0 11 6 11
13 0 8 21 12 70 12 38 0 70 -4 69 -9 -1 -10 21 -26 36 -26 6 0 4 4 -4 9 -19
12 -9 34 18 36 16 1 20 -2 16 -14 -4 -11 -1 -10 15 4 11 10 20 13 20 7 0 -7 5
-12 11 -12 5 0 8 4 5 8 -2 4 0 14 5 22 8 12 9 11 7 -4 -2 -12 4 -20 15 -21 9
-2 17 1 17 7 0 6 7 4 17 -3 11 -10 14 -10 9 -1 -4 6 -2 12 3 12 6 0 11 -4 11
-10 0 -5 5 -10 11 -10 5 0 8 3 6 8 -3 4 6 8 19 8 13 1 22 -2 19 -7 -3 -4 5 -5
17 -2 42 10 93 9 100 -2 5 -6 8 -6 8 3 0 6 7 12 15 12 8 0 15 6 16 13 0 6 4 3
9 -8 5 -11 9 -14 9 -7 1 10 6 10 22 1 12 -6 19 -7 16 -2 -2 4 -1 17 4 28 8 20
8 20 8 0 1 -15 8 -21 25 -21 14 0 22 4 20 8 -3 5 -9 6 -14 3 -5 -3 -11 -2 -13
2 -3 5 20 7 51 6 77 -2 75 -1 68 -19 -3 -8 -2 -12 4 -9 6 3 10 14 11 23 0 14
2 13 9 -3 6 -14 9 -15 9 -5 1 11 11 15 34 14 54 -2 58 -4 51 -16 -4 -7 -3 -8
5 -4 6 4 9 12 6 17 -5 8 9 13 18 7 2 -2 12 4 22 12 11 8 16 10 12 4 -3 -6 0
-20 8 -30 13 -18 14 -18 9 6 -2 14 -2 19 2 13 3 -7 10 -13 15 -13 6 0 8 4 4 9
-3 5 -1 13 5 16 6 4 9 1 8 -6 -2 -10 34 -18 45 -9 6 4 177 4 177 0 0 -3 11 -7
26 -8 14 -1 23 2 19 8 -8 13 45 -10 63 -27 17 -16 30 -17 14 -1 -7 7 -12 18
-12 26 0 9 7 6 20 -9 11 -13 18 -17 15 -8 -5 13 2 15 44 13 28 -1 53 2 56 7 8
12 45 -13 38 -26 -4 -5 -3 -7 2 -3 4 4 17 3 29 -3 19 -9 19 -9 4 4 -10 8 -18
16 -18 18 0 2 22 4 49 4 35 0 47 -3 41 -11 -6 -7 -5 -11 5 -11 7 0 14 3 13 6
-2 21 4 30 21 28 11 0 17 -6 13 -12 -3 -5 2 -4 11 4 11 9 17 10 17 2 0 -6 5
-11 11 -11 5 0 7 6 3 12 -5 9 -2 9 9 -1 9 -7 17 -9 17 -4 0 5 7 10 15 10 8 0
15 -4 15 -8 0 -12 29 -4 50 14 21 18 28 9 9 -10 -9 -9 -7 -10 10 -6 11 3 21
10 21 15 0 5 5 6 10 3 6 -3 10 -2 10 4 0 5 -6 11 -12 14 -7 2 -1 4 14 3 22 -1
24 -4 15 -16 -9 -12 -8 -13 2 -3 7 6 19 9 26 7 7 -3 16 -1 20 5 3 6 0 9 -8 5
-8 -3 -17 2 -21 11 -4 11 -2 14 7 8 18 -11 68 -13 62 -2 -4 5 4 5 19 -1 21 -8
24 -7 19 7 -5 12 -3 14 8 7 24 -15 41 -13 61 6 11 10 31 17 44 15 13 -1 24 2
24 7 0 5 4 7 9 3 5 -3 13 0 16 5 5 8 14 5 28 -7 11 -10 17 -12 13 -5 -4 6 -3
12 1 12 5 0 15 -6 22 -12 11 -10 13 -10 7 0 -4 7 -2 12 6 13 7 0 21 2 31 4 10
2 21 -3 24 -11 4 -11 9 -12 19 -3 7 6 19 7 26 3 8 -5 8 -1 -2 11 -8 10 -10 16
-3 12 6 -4 25 -9 41 -11 25 -3 30 0 27 16 -2 10 0 16 5 13 4 -3 11 1 14 7 3 7
3 2 0 -12 -5 -23 -4 -23 9 -8 8 10 17 15 20 11 4 -3 7 1 7 10 0 13 7 15 40 11
27 -4 46 -1 57 8 15 11 16 11 10 -4 -5 -14 -2 -16 16 -9 12 4 28 6 36 3 8 -2
11 0 8 5 -3 5 3 14 14 21 11 7 19 8 19 2 0 -5 -4 -10 -10 -10 -5 0 -10 -4 -10
-9 0 -17 40 1 40 18 1 14 2 14 10 -1 12 -20 61 -18 69 3 3 8 20 14 36 14 17 0
33 3 36 8 3 5 9 2 12 -6 4 -11 0 -15 -14 -12 -11 2 -17 0 -14 -5 9 -14 40 -3
39 14 -1 12 1 14 10 7 9 -7 17 -7 26 2 10 10 12 9 6 -3 -4 -8 0 -6 8 4 16 20
21 13 16 -24 -1 -10 3 -9 13 5 9 11 13 23 11 26 -2 4 12 3 30 -1 27 -6 33 -5
29 6 -3 8 -10 11 -16 7 -6 -3 -7 -1 -3 6 6 9 11 9 22 0 12 -10 13 -9 8 4 -4
12 -1 14 15 10 17 -4 20 -2 15 11 -4 11 -1 16 10 16 9 0 16 8 16 21 0 11 5 17
10 14 6 -3 10 -1 10 4 0 6 3 10 8 10 20 -3 32 3 32 17 0 8 5 12 10 9 6 -4 7
-11 4 -17 -4 -7 -2 -8 5 -4 6 4 9 12 6 17 -5 8 23 14 47 10 4 0 19 6 35 14 15
8 21 15 13 15 -12 1 -11 3 3 11 9 6 15 14 12 19 -3 5 -1 11 5 15 10 6 15 -9
10 -30 -1 -5 2 -6 6 -2 12 12 14 37 3 37 -6 0 -7 4 -4 10 4 6 -1 7 -11 3 -14
-5 -15 -3 -4 18 10 17 10 24 1 27 -6 2 -17 10 -25 17 -7 8 -16 11 -20 8 -6 -6
-7 -1 -10 36 0 11 -4 23 -8 27 -4 3 -6 -3 -3 -14 2 -12 0 -24 -4 -27 -5 -2 -8
5 -7 18 1 15 -4 21 -14 19 -8 -2 -11 0 -7 4 4 4 13 9 20 10 7 1 28 9 48 18 20
8 39 12 43 9 3 -4 6 -1 6 6 0 7 -7 11 -14 8 -10 -4 -13 -1 -10 8 3 8 13 11 22
8 9 -4 14 -2 9 2 -4 5 -16 9 -27 10 -11 1 -26 9 -33 18 -6 9 -23 18 -37 19
-14 2 -31 7 -39 12 -10 6 -12 5 -7 -2 4 -7 2 -12 -3 -12 -6 0 -11 6 -11 13 0
8 -4 7 -10 -3 -8 -13 -10 -12 -10 3 0 10 -5 15 -10 12 -6 -4 -7 -11 -4 -17 4
-7 2 -8 -5 -4 -6 4 -8 12 -5 18 5 8 1 9 -10 5 -14 -6 -17 -3 -12 10 6 14 4 14
-14 -2 -16 -14 -21 -16 -18 -5 2 9 -4 14 -14 14 -10 -1 -16 2 -13 6 6 10 -24
35 -32 26 -3 -3 -1 -6 5 -6 7 0 12 -4 12 -10 0 -6 -8 -6 -22 -1 -48 19 -63 24
-71 22 -5 -1 -6 3 -2 9 5 8 11 7 21 -1 10 -8 14 -8 14 0 0 11 -13 15 -37 12
-6 -1 -15 4 -19 10 -4 8 -3 9 4 5 8 -5 10 -2 6 9 -5 13 -9 12 -27 -7 -16 -19
-19 -20 -13 -4 5 14 2 17 -9 12 -9 -3 -13 -2 -10 4 3 6 1 10 -4 10 -6 0 -11
-4 -11 -9 0 -5 -11 -8 -24 -7 -13 0 -22 5 -19 9 3 5 12 6 22 2 12 -5 13 -3 5
5 -9 9 -17 9 -34 0 -12 -7 -20 -7 -16 -2 3 6 1 12 -6 14 -19 7 -58 -3 -52 -13
3 -5 -2 -6 -11 -3 -8 4 -23 0 -33 -7 -14 -11 -15 -11 -4 1 18 21 15 35 -5 19
-14 -12 -15 -12 -9 0 7 10 4 12 -13 6 -16 -5 -20 -3 -15 9 3 9 1 16 -5 16 -6
0 -11 -6 -11 -12 0 -9 -3 -10 -8 -2 -9 14 -82 14 -82 0 0 -6 -4 -5 -9 2 -4 8
-11 13 -15 13 -23 -3 -36 0 -31 9 4 6 -1 7 -11 3 -13 -5 -15 -3 -9 7 5 8 4 11
-3 6 -5 -3 -13 0 -16 6 -4 7 -5 4 -2 -8 3 -18 1 -20 -19 -10 -13 6 -21 15 -18
20 4 5 1 6 -6 2 -6 -4 -9 -11 -6 -16 3 -5 1 -12 -5 -15 -6 -4 -9 -1 -8 7 2 7
-3 12 -11 10 -12 -3 -12 0 -1 13 7 8 10 18 6 22 -3 3 -6 1 -6 -6 0 -9 -8 -11
-27 -6 -24 6 -25 5 -12 -12 12 -16 12 -17 -2 -6 -9 7 -28 14 -43 15 -16 2 -25
7 -22 15 3 7 0 15 -6 19 -6 4 -8 3 -5 -3 4 -6 0 -16 -7 -22 -12 -10 -13 -9 -9
7 4 16 -1 19 -29 18 -18 -1 -39 -6 -47 -10 -10 -6 -12 -5 -7 2 4 7 1 12 -6 12
-9 0 -9 3 2 10 8 5 10 10 4 10 -6 0 -17 -7 -24 -15 -19 -23 -46 1 -28 24 9 12
7 11 -8 -2 -12 -10 -25 -17 -30 -16 -5 1 -13 0 -19 -1 -25 -6 -41 -4 -47 5 -4
6 -8 1 -8 -10 0 -16 -2 -17 -9 -5 -6 8 -7 18 -5 22 3 4 -2 5 -10 2 -9 -3 -13
-10 -10 -15 3 -5 0 -9 -5 -9 -6 0 -11 5 -11 10 0 6 -5 10 -11 10 -5 0 -7 -5
-3 -12 5 -7 3 -8 -7 -2 -20 12 -38 14 -45 3 -7 -12 -34 8 -34 25 0 7 3 7 8 -1
5 -9 12 -6 21 10 13 20 13 21 -2 8 -14 -11 -18 -11 -23 5 -4 11 -9 23 -12 27
-2 5 6 4 18 -3 12 -6 24 -9 28 -6 3 3 0 6 -6 6 -6 0 -9 6 -6 14 3 8 12 12 20
9 13 -5 20 15 14 42 -1 6 2 7 6 3 4 -4 14 -2 23 4 12 10 12 7 -2 -8 -14 -17
-14 -21 -2 -21 8 0 12 4 10 8 -3 3 2 12 11 19 12 11 12 15 2 22 -8 6 -3 7 16
3 26 -6 28 -5 16 10 -7 9 -9 15 -4 14 20 -3 34 2 34 12 0 6 11 24 23 39 18 20
28 25 40 19 10 -6 18 -5 23 2 4 7 3 9 -4 5 -6 -3 -13 -2 -17 4 -3 5 1 10 9 10
15 0 21 12 17 34 -1 5 4 4 12 -2 18 -15 30 -3 15 15 -9 11 -7 12 8 7 10 -4 16
-3 11 1 -4 5 7 15 24 22 18 7 29 16 26 20 -4 3 -13 0 -21 -6 -11 -9 -16 -9
-22 0 -4 7 -3 9 3 6 14 -9 35 17 25 29 -4 5 4 0 17 -11 14 -11 21 -14 17 -7
-4 7 -1 12 8 12 9 0 16 9 16 20 0 11 5 20 10 20 6 0 10 9 10 19 0 11 6 21 13
24 6 2 -4 3 -25 3 -20 -1 -34 -4 -31 -8 9 -16 -10 -8 -24 10 -8 9 -12 11 -8 5
3 -7 1 -13 -5 -13 -6 0 -9 -4 -6 -9 4 -5 -3 -7 -14 -4 -12 3 -20 0 -20 -6 0
-7 -5 -9 -11 -5 -8 4 -2 12 15 21 14 7 26 16 26 19 0 3 -5 2 -12 -2 -7 -4 -26
-8 -43 -9 -40 -2 -66 -15 -58 -28 3 -6 1 -7 -6 -3 -9 6 -9 11 -1 21 9 11 2 13
-40 9 -28 -2 -49 -1 -47 4 3 4 -3 8 -13 8 -11 0 -16 -5 -12 -11 4 -6 0 -3 -10
7 -17 19 -33 25 -23 8 3 -5 1 -10 -4 -10 -6 0 -11 5 -11 10 0 6 -7 10 -15 10
-8 0 -15 -5 -15 -12 0 -6 -3 -8 -7 -4 -5 4 -8 13 -8 19 0 5 -7 12 -15 14 -13
4 -13 3 0 -6 12 -9 11 -11 -8 -11 -26 0 -55 23 -44 35 4 5 1 5 -6 1 -10 -6
-10 -11 -2 -21 8 -9 8 -15 0 -20 -6 -4 -10 -3 -9 2 1 4 -1 16 -6 26 -6 15 -10
16 -16 5 -7 -10 -9 -10 -9 0 0 7 -15 12 -41 12 -25 0 -38 4 -34 10 4 7 -3 9
-22 5 l-28 -5 25 12 25 12 -28 4 c-15 2 -25 7 -23 11 7 11 -38 8 -47 -3 -5 -6
-5 -1 -2 12 4 13 2 22 -4 22 -6 0 -11 -5 -11 -12 0 -6 -3 -8 -6 -5 -4 4 -2 12
4 20 8 10 6 13 -8 13 -10 0 -16 -5 -13 -10 4 -5 1 -6 -6 -2 -7 5 -10 15 -7 23
3 8 2 11 -3 8 -5 -3 -12 -1 -16 5 -3 5 -12 10 -18 10 -7 0 -6 -4 3 -11 13 -9
12 -10 -2 -5 -10 3 -18 0 -18 -6 0 -6 -3 -9 -6 -5 -3 3 -1 13 4 23 6 11 7 27
1 41 -10 26 8 43 23 22 7 -12 9 -11 7 1 -3 27 1 36 22 59 l22 23 -22 -7 c-12
-4 -21 -2 -21 4 0 6 6 11 14 11 7 0 16 14 20 32 3 17 9 28 12 25 10 -10 33 19
36 46 2 15 8 30 13 34 4 4 5 2 1 -4 -4 -8 -1 -13 8 -13 17 0 17 20 1 32 -6 4
-2 8 8 8 11 0 15 5 11 11 -4 8 1 9 17 4 24 -8 24 -8 4 11 -11 11 -16 16 -11
12 6 -5 14 -8 18 -8 4 0 7 3 7 8 -1 4 -1 16 0 27 1 17 3 18 11 5 7 -11 10 -6
11 20 0 29 2 31 9 15 8 -18 9 -19 9 -1 1 12 6 16 17 12 8 -3 12 -2 9 3 -3 5 0
13 6 16 5 4 8 13 5 20 -3 9 1 12 13 10 14 -2 17 2 15 21 -1 13 1 23 4 22 16
-3 40 15 36 27 -6 15 22 28 39 18 7 -3 9 -2 4 2 -4 5 1 17 10 28 13 15 14 18
3 12 -13 -8 -13 -6 -1 8 14 18 36 13 25 -5 -4 -7 -2 -8 4 -4 9 5 8 13 -3 30
-13 20 -13 23 0 23 8 0 11 -5 8 -10 -3 -6 -1 -7 5 -4 5 4 9 15 7 25 -4 24 23
52 43 44 15 -5 15 -3 4 10 -10 13 -10 18 -1 24 8 4 9 3 5 -4 -4 -7 -3 -12 2
-12 15 0 22 28 9 34 -7 2 1 5 16 5 16 1 26 5 22 11 -3 6 -1 10 5 10 7 0 9 7 6
16 -3 8 -2 12 4 9 6 -3 10 -1 10 5 0 7 7 10 14 7 11 -4 13 -1 9 10 -4 11 -3
14 6 9 7 -5 10 -2 9 6 -2 7 3 12 10 10 10 -2 10 2 1 20 l-12 23 23 -20 23 -20
-12 22 c-10 20 -9 22 5 16 13 -5 15 -3 9 7 -6 10 -4 12 8 7 16 -6 20 5 16 40
-1 14 36 21 51 10 8 -6 12 -7 8 -3 -4 5 -3 14 2 21 7 8 5 12 -5 12 -8 0 -12
-4 -9 -9 3 -4 -2 -5 -11 -1 -13 5 -14 7 -3 14 7 5 21 9 31 9 11 0 15 4 11 12
-5 7 0 9 14 6 19 -5 20 -4 11 14 -8 15 -8 19 0 13 17 -10 43 15 36 34 -3 11 0
10 10 -3 15 -19 15 -19 15 1 0 12 6 24 13 27 6 3 1 3 -12 0 -18 -5 -22 -3 -15
7 6 12 5 12 -9 0 -14 -11 -17 -11 -17 0 0 11 -2 11 -10 -1 -6 -10 -10 -11 -10
-2 0 6 -5 12 -11 12 -5 0 -7 -5 -3 -12 4 -7 3 -8 -4 -4 -6 4 -22 2 -34 -4 -22
-10 -22 -10 -4 4 18 14 18 15 -3 13 -11 -1 -21 -8 -21 -15 0 -12 -3 -12 -17
-1 -11 10 -14 10 -9 2 4 -8 1 -13 -8 -13 -10 0 -13 6 -10 18 5 13 4 14 -4 3
-6 -8 -17 -11 -27 -7 -13 4 -16 2 -12 -9 4 -8 2 -17 -4 -20 -5 -4 -8 -3 -7 2
2 4 -1 8 -7 8 -5 0 -9 -3 -8 -7 1 -3 -5 -5 -15 -3 -9 1 -25 -2 -34 -7 -12 -5
-18 -5 -18 2 0 5 7 10 15 10 8 0 15 4 15 8 0 4 -9 8 -19 8 -11 0 -18 -3 -16
-7 3 -3 -5 -15 -17 -25 -21 -19 -21 -19 -9 3 14 27 -2 39 -20 16 -12 -14 -12
-16 0 -8 10 5 12 4 7 -3 -4 -7 -15 -12 -25 -12 -9 0 -23 -6 -30 -12 -11 -10
-13 -10 -7 0 5 7 1 12 -9 12 -10 0 -13 -5 -9 -12 6 -10 4 -10 -8 0 -10 8 -19
9 -22 3 -4 -5 -15 -8 -26 -6 -11 2 -22 0 -25 -5 -3 -5 4 -7 15 -5 11 2 18 0
15 -6 -9 -13 -59 -11 -75 4 -8 6 -6 1 5 -12 11 -14 14 -21 7 -17 -7 4 -20 2
-28 -5 -12 -10 -15 -10 -12 1 2 7 -3 15 -11 18 -8 3 -11 0 -7 -7 10 -15 -7
-14 -23 2 -10 10 -11 9 -6 -5 8 -21 9 -21 -33 -9 -20 6 -30 6 -27 0 4 -5 -3
-9 -15 -9 -13 0 -19 4 -14 12 4 7 3 8 -4 4 -6 -4 -9 -14 -6 -24 5 -15 4 -16
-8 -1 -7 9 -23 14 -36 12 -16 -2 -21 1 -16 9 5 7 3 8 -7 2 -8 -5 -16 -9 -19
-10 -22 -4 -39 -18 -33 -27 3 -6 1 -7 -6 -3 -9 6 -9 11 -1 21 8 10 5 13 -14
11 -18 -1 -22 -4 -14 -14 8 -9 7 -11 -6 -6 -9 3 -16 10 -16 14 0 4 -7 10 -15
14 -13 5 -14 2 -4 -16 11 -20 10 -20 -12 -5 -21 15 -24 15 -41 0 -16 -14 -18
-14 -13 -2 4 10 0 16 -9 16 -8 0 -13 -4 -10 -9 3 -4 0 -8 -5 -8 -6 0 -11 4
-11 9 0 5 -7 12 -16 15 -9 3 -12 2 -8 -5 4 -6 -1 -9 -13 -7 -11 2 -27 -3 -37
-11 -14 -12 -16 -12 -11 1 4 9 0 15 -9 15 -8 0 -13 -4 -11 -8 3 -3 -2 -12 -9
-18 -12 -10 -13 -8 -9 11 5 23 5 23 -10 3 -16 -19 -16 -19 -10 5 5 24 5 24
-10 5 -16 -21 -30 -16 -32 13 0 9 -4 23 -9 30 -4 7 -2 20 6 29 11 15 11 16 -7
10 -20 -7 -20 -7 -1 8 11 8 23 15 26 15 4 0 7 7 7 16 0 15 -1 15 -12 0 -17
-23 -28 -20 -15 4 6 11 8 25 5 30 -3 6 2 10 12 10 17 1 17 1 0 11 -12 7 -15
15 -9 22 5 7 8 20 7 30 -2 9 1 15 6 11 5 -3 7 -10 4 -15 -4 -5 -1 -9 5 -9 7 0
9 7 6 16 -4 9 -1 22 5 30 7 9 7 19 -2 36 -12 22 -11 22 6 8 17 -14 17 -14 7 7
-15 27 -15 36 -1 27 7 -4 6 2 -2 17 -12 23 -11 23 6 9 17 -14 18 -14 6 8 -14
26 -5 45 10 22 7 -12 8 -9 6 8 -2 13 -9 27 -16 32 -10 5 -10 9 -2 14 6 4 9 12
6 17 -3 5 0 6 8 4 10 -4 13 4 13 32 0 21 -5 41 -11 45 -7 5 -6 8 1 8 7 0 14 7
18 15 4 13 1 12 -22 -2 l-27 -17 20 21 c12 11 27 23 35 26 11 4 9 6 -4 6 -20
1 -20 1 0 15 16 12 17 17 6 28 -11 11 -12 10 -7 -7 6 -16 5 -17 -4 -5 -7 10
-6 19 4 30 11 13 12 19 3 28 -9 9 -9 12 2 12 7 0 10 3 7 7 -4 3 -2 12 4 20 6
7 8 13 3 13 -5 0 -2 5 6 11 13 9 13 10 0 6 -8 -2 -14 -10 -12 -16 1 -7 -2 -10
-8 -6 -7 4 -7 12 0 26 6 11 15 17 20 14 5 -3 11 -1 14 4 4 5 -2 8 -11 6 -26
-4 -36 5 -23 20 6 7 9 29 7 49 -4 30 -2 34 10 24 11 -9 13 -8 11 3 -2 8 -10
19 -18 26 -13 10 -12 12 7 8 13 -2 26 1 29 7 4 7 2 8 -4 4 -7 -4 -12 -1 -12
10 0 14 -3 15 -17 3 -15 -11 -16 -11 -6 0 6 7 10 19 9 25 -2 6 -1 8 1 3 3 -4
10 -4 15 -1 6 4 8 2 5 -3 -4 -6 -1 -13 6 -16 8 -3 12 9 12 42 -1 25 4 52 10
60 7 11 7 13 -2 7 -8 -4 -13 -2 -13 4 0 6 -5 8 -12 4 -6 -4 -8 -3 -4 4 3 6 2
14 -4 17 -8 5 -8 11 -1 19 6 7 7 17 3 21 -4 5 -1 5 6 1 10 -6 10 -11 1 -22 -9
-11 -8 -15 6 -20 9 -4 22 -1 28 5 9 9 8 11 -5 6 -21 -8 -24 5 -5 24 10 11 10
13 0 7 -8 -5 -13 -1 -13 9 0 9 4 14 9 10 5 -3 13 0 17 6 4 8 3 9 -4 5 -6 -3
-16 3 -22 15 -8 15 -9 19 -1 15 7 -5 11 1 11 14 0 12 -4 19 -9 15 -5 -3 -12
-1 -15 4 -4 5 2 8 11 6 10 -2 22 -4 26 -4 5 -1 5 -6 1 -13 -5 -7 -3 -8 6 -3
10 6 9 12 -6 24 -10 9 -20 23 -22 31 -3 11 0 11 12 1 11 -9 16 -9 22 0 4 7 3
9 -3 6 -12 -7 -33 33 -29 56 1 9 11 26 21 39 11 13 13 17 5 11 -18 -17 -27
-16 -27 1 0 8 3 14 6 13 3 -1 6 3 6 8 0 6 -6 9 -13 7 -9 -2 -11 1 -6 10 5 9 2
8 -11 -2 -17 -14 -18 -13 -12 5 7 19 6 19 -7 3 -7 -10 -21 -18 -32 -18 -17 0
-17 -1 2 -14 13 -10 14 -14 4 -13 -8 2 -20 6 -27 10 -7 5 -9 1 -6 -13 3 -12 0
-20 -6 -20 -7 0 -9 5 -5 12 4 6 3 8 -4 4 -6 -3 -9 -15 -7 -26 3 -14 -2 -20
-15 -20 -10 0 -23 -8 -29 -17 -5 -10 -13 -15 -17 -11 -9 9 -34 -10 -34 -26 0
-6 5 -4 11 4 9 13 10 13 6 0 -2 -8 -9 -14 -15 -13 -14 3 -64 -56 -57 -67 3 -5
1 -12 -5 -15 -6 -4 -10 -3 -9 2 3 19 -2 23 -15 11 -9 -8 -11 -17 -5 -24 6 -7
-1 -10 -21 -9 -16 1 -27 -2 -24 -6 2 -4 0 -10 -6 -14 -6 -4 -7 -11 -4 -17 5
-7 1 -9 -9 -5 -10 4 -22 -1 -30 -13 -8 -11 -17 -17 -21 -12 -4 4 -7 3 -6 -3 1
-5 2 -18 1 -29 -1 -15 -4 -16 -15 -7 -11 9 -16 9 -22 0 -4 -8 -3 -9 4 -5 7 4
12 2 12 -4 0 -6 -7 -13 -15 -16 -8 -4 -15 -10 -15 -16 0 -5 6 -6 13 -2 7 4 9
3 4 -2 -5 -5 -14 -9 -19 -9 -6 0 -13 -6 -16 -13 -2 -8 3 -10 15 -6 14 5 15 4
4 -4 -8 -6 -21 -8 -29 -4 -10 3 -13 1 -8 -6 4 -7 2 -12 -4 -12 -6 0 -8 -5 -4
-12 4 -7 3 -8 -5 -4 -6 4 -9 11 -7 15 3 4 -1 8 -9 8 -8 0 -14 -3 -13 -6 2 -20
-4 -31 -17 -31 -9 0 -18 -7 -21 -15 -4 -8 -10 -13 -14 -10 -5 3 -12 0 -16 -6
-4 -7 -3 -9 4 -5 22 14 18 -10 -6 -34 -14 -14 -20 -18 -13 -8 8 11 9 18 1 23
-6 4 -9 1 -8 -7 2 -7 -3 -12 -10 -10 -10 2 -10 -2 -1 -20 11 -21 11 -22 -5 -9
-15 12 -16 12 -9 -5 6 -17 5 -18 -12 -4 -17 14 -18 14 -5 -10 12 -22 11 -24
-2 -13 -12 11 -18 9 -34 -9 -10 -12 -13 -18 -5 -13 10 6 12 4 7 -4 -5 -7 -15
-10 -23 -7 -8 3 -11 2 -8 -3 3 -5 1 -12 -5 -16 -6 -4 -7 -11 -4 -17 5 -7 1 -9
-8 -5 -9 3 -24 -3 -34 -14 -12 -14 -14 -19 -4 -19 9 0 7 -5 -5 -14 -11 -8 -23
-12 -27 -10 -5 3 -8 0 -8 -5 0 -6 5 -11 12 -11 6 0 8 -3 5 -6 -4 -4 -12 -2
-20 4 -10 8 -13 6 -14 -9 -1 -12 2 -17 10 -13 7 4 8 3 4 -1 -12 -14 -37 -15
-38 -2 0 7 -7 -1 -14 -18 -7 -16 -11 -33 -9 -37 2 -3 -7 -5 -20 -4 -18 2 -23
-1 -18 -12 3 -10 1 -13 -7 -8 -6 4 -11 4 -10 -1 4 -22 -3 -34 -18 -31 -13 2
-17 -3 -16 -19 2 -17 -1 -21 -14 -16 -9 4 -14 2 -11 -3 4 -5 -1 -18 -9 -29
-15 -19 -15 -19 -9 5 l7 25 -16 -25 c-12 -20 -15 -21 -13 -6 2 10 -3 21 -11
24 -10 3 -11 0 -5 -9 7 -12 5 -12 -9 0 -18 15 -23 26 -7 16 6 -3 10 -1 10 4 0
6 -8 11 -17 11 -16 1 -17 2 -2 13 14 10 14 14 2 25 -7 7 -10 18 -7 24 4 7 2 8
-5 4 -6 -4 -9 -12 -6 -17 4 -5 1 -9 -4 -9 -13 0 -14 6 -2 29 7 13 6 18 -4 18
-8 0 -11 -5 -8 -10 3 -6 1 -7 -6 -3 -7 5 -9 16 -5 28 4 15 3 18 -7 13 -9 -6
-11 -3 -6 8 6 16 -3 22 -26 18 -5 -1 -6 3 -2 9 3 6 10 8 14 6 4 -3 8 1 8 9 0
11 -5 12 -20 3 -13 -6 -17 -7 -13 0 3 6 -1 17 -9 25 -8 9 -15 19 -15 24 1 4
10 -3 20 -16 11 -13 20 -19 20 -13 0 6 -13 21 -28 34 -28 23 -32 29 -32 49 0
5 -4 7 -10 4 -5 -3 -10 -1 -10 4 0 6 5 11 10 11 6 0 2 8 -7 18 -10 11 -22 17
-26 14 -5 -2 -4 6 3 18 7 13 8 20 2 16 -6 -3 -13 -2 -17 4 -4 6 -10 8 -15 5
-4 -3 -13 1 -19 8 -8 10 -7 14 4 14 8 0 11 -5 8 -11 -3 -6 0 -5 8 2 11 11 12
14 1 21 -8 5 -13 12 -13 17 1 5 -3 10 -9 10 -5 1 -14 2 -20 3 -5 0 -10 6 -10
12 0 5 4 8 8 5 5 -3 9 1 9 9 0 8 -3 14 -6 13 -18 -2 -31 3 -31 13 0 5 5 7 12
3 7 -4 8 -3 4 5 -6 9 -11 9 -21 1 -10 -8 -12 -5 -12 15 0 15 4 22 11 18 6 -4
4 2 -4 13 -29 37 -40 45 -52 38 -10 -6 -9 -3 0 9 12 14 10 15 -15 11 -27 -4
-27 -4 -6 9 22 12 22 13 3 25 -16 9 -20 9 -20 0 0 -9 -3 -9 -12 0 -10 10 -10
15 2 22 13 8 12 10 -2 10 -10 0 -18 4 -18 10 0 5 -20 19 -45 31 -25 12 -42 25
-39 30 3 5 -3 9 -13 9 -15 0 -16 2 -3 10 11 7 11 10 2 10 -7 0 -11 4 -8 9 3 5
-1 11 -9 14 -10 4 -12 1 -8 -11 3 -9 4 -15 2 -12 -2 3 -13 15 -24 28 -16 20
-16 22 -2 16 10 -3 17 -1 17 5 0 6 -5 11 -11 11 -5 0 -7 6 -3 13 6 9 5 9 -8
-1 -13 -10 -18 -9 -29 5 -8 9 -9 14 -3 10 7 -4 15 0 18 9 9 24 7 31 -4 14 -9
-13 -11 -13 -20 0 -6 8 -13 28 -17 43 -4 21 -8 25 -14 15 -7 -10 -9 -9 -9 4 0
9 -8 22 -17 28 -14 9 -14 10 -2 7 9 -3 16 1 16 9 0 7 -4 11 -8 9 -3 -3 -12 9
-19 25 -8 19 -20 30 -32 30 -10 0 -16 5 -13 10 4 6 11 8 16 5 5 -3 6 1 3 9 -3
9 -10 16 -15 16 -5 0 -9 4 -9 10 0 5 8 7 18 4 16 -5 16 -5 -1 6 -9 6 -15 15
-12 20 3 5 -4 7 -15 5 -17 -3 -19 -1 -10 16 8 13 7 19 0 19 -6 0 -9 4 -5 9 3
5 1 12 -5 16 -5 3 -11 3 -11 -2z m79 -178 c-3 -3 -9 2 -12 12 -6 14 -5 15 5 6
7 -7 10 -15 7 -18z m-134 -97 c-3 -4 1 -8 8 -8 9 0 10 -3 2 -8 -6 -4 -10 -15
-8 -25 1 -11 0 -16 -4 -13 -3 4 -7 25 -8 48 -1 24 2 35 6 27 5 -7 6 -17 4 -21z
m1744 -123 c-3 -3 -9 2 -12 12 -6 14 -5 15 5 6 7 -7 10 -15 7 -18z m-51 -38
c0 -8 -6 -14 -14 -14 -9 0 -10 4 -2 14 6 7 12 13 14 13 1 0 2 -6 2 -13z
m-1692 -47 c3 -5 1 -10 -4 -10 -6 0 -11 5 -11 10 0 6 2 10 4 10 3 0 8 -4 11
-10z m390 -28 c-3 -3 -11 0 -18 7 -9 10 -8 11 6 5 10 -3 15 -9 12 -12z m1159
-50 c3 -5 -1 -9 -9 -9 -8 0 -12 4 -9 9 3 4 7 8 9 8 2 0 6 -4 9 -8z m-14 -26
c0 -2 -7 -7 -16 -10 -8 -3 -12 -2 -9 4 6 10 25 14 25 6z m-1025 -55 c3 -5 2
-12 -3 -15 -5 -3 -9 1 -9 9 0 17 3 19 12 6z m1398 2 c-7 -2 -13 -9 -13 -14 0
-6 4 -7 10 -4 6 4 7 -1 3 -11 -5 -15 -7 -15 -15 0 -10 18 -3 36 15 35 9 0 9
-2 0 -6z m-553 -117 c0 -3 -4 -8 -10 -11 -5 -3 -10 -1 -10 4 0 6 5 11 10 11 6
0 10 -2 10 -4z m-133 -138 c2 -17 0 -19 -7 -8 -5 8 -6 18 -4 22 8 12 10 10 11
-14z m-73 -66 c3 -5 -1 -9 -9 -9 -8 0 -12 4 -9 9 3 4 7 8 9 8 2 0 6 -4 9 -8z
m-99 -120 c-3 -3 -11 0 -18 7 -9 10 -8 11 6 5 10 -3 15 -9 12 -12z m789 -85
c-3 -9 -11 -17 -16 -17 -6 0 -5 6 2 15 6 8 8 20 4 27 -5 10 -4 10 5 2 6 -6 9
-18 5 -27z m-889 -26 c-6 -5 -25 10 -25 20 0 5 6 4 14 -3 8 -7 12 -15 11 -17z
m-1000 -50 c3 -5 1 -12 -5 -16 -5 -3 -10 1 -10 9 0 18 6 21 15 7z m-757 -136
c-3 -3 -9 2 -12 12 -6 14 -5 15 5 6 7 -7 10 -15 7 -18z m-507 -72 c13 -16 12
-17 -3 -4 -10 7 -18 15 -18 17 0 8 8 3 21 -13z m1109 -81 c0 -5 -7 -9 -15 -9
-8 0 -12 4 -9 9 3 4 9 8 15 8 5 0 9 -4 9 -8z m2385 -152 c-3 -5 -12 -10 -18
-10 -7 0 -6 4 3 10 19 12 23 12 15 0z m44 -13 c0 -9 -2 -8 -6 1 -2 6 -10 9
-15 6 -7 -4 -8 -2 -4 5 9 13 26 5 25 -12z m-309 3 c0 -5 -2 -10 -4 -10 -3 0
-8 5 -11 10 -3 6 -1 10 4 10 6 0 11 -4 11 -10z m120 0 c0 -5 -2 -10 -4 -10 -3
0 -8 5 -11 10 -3 6 -1 10 4 10 6 0 11 -4 11 -10z m497 -385 c0 -8 -4 -12 -9
-9 -5 3 -6 10 -3 15 9 13 12 11 12 -6z m-112 -145 c-3 -5 -11 -10 -16 -10 -6
0 -7 5 -4 10 3 6 11 10 16 10 6 0 7 -4 4 -10z m-3389 -252 c4 -7 4 -10 -1 -6
-4 4 -15 2 -24 -5 -14 -11 -14 -10 -2 6 16 20 18 21 27 5z m3174 -81 c0 -2
-10 -12 -22 -23 l-23 -19 19 23 c18 21 26 27 26 19z m-3893 -314 c5 3 10 0 10
-8 0 -10 -5 -11 -19 -4 -10 5 -18 15 -18 22 0 8 3 8 9 -2 5 -7 13 -11 18 -8z
m43 -18 c0 -8 -2 -15 -4 -15 -2 0 -6 7 -10 15 -3 8 -1 15 4 15 6 0 10 -7 10
-15z m4465 5 c-3 -5 -12 -10 -18 -10 -7 0 -6 4 3 10 19 12 23 12 15 0z m-125
-4 c0 -3 -4 -8 -10 -11 -5 -3 -10 -1 -10 4 0 6 5 11 10 11 6 0 10 -2 10 -4z
m270 -6 c0 -5 -2 -10 -4 -10 -3 0 -8 5 -11 10 -3 6 -1 10 4 10 6 0 11 -4 11
-10z m-1250 -154 c0 -3 -4 -8 -10 -11 -5 -3 -10 -1 -10 4 0 6 5 11 10 11 6 0
10 -2 10 -4z m833 -281 c-7 -21 -12 -19 -10 4 0 11 5 18 9 15 4 -3 5 -11 1
-19z m387 -55 c0 -5 -5 -10 -11 -10 -5 0 -7 5 -4 10 3 6 8 10 11 10 2 0 4 -4
4 -10z m-4155 -10 c3 -6 -1 -7 -9 -4 -18 7 -21 14 -7 14 6 0 13 -4 16 -10z
m-781 -88 c3 -5 -1 -9 -9 -9 -8 0 -12 4 -9 9 3 4 7 8 9 8 2 0 6 -4 9 -8z
m5493 -7 c0 -8 -4 -12 -9 -9 -5 3 -6 10 -3 15 9 13 12 11 12 -6z m-5820 -101
c-3 -3 -12 -4 -19 -1 -8 3 -5 6 6 6 11 1 17 -2 13 -5z m6248 -44 c-3 -5 -12
-10 -18 -10 -7 0 -6 4 3 10 19 12 23 12 15 0z m-6565 -54 c0 -3 -4 -8 -10 -11
-5 -3 -10 -1 -10 4 0 6 5 11 10 11 6 0 10 -2 10 -4z m-100 -103 c0 -3 -7 -3
-15 1 -8 3 -15 0 -15 -6 0 -6 -3 -9 -6 -5 -11 10 6 26 21 20 8 -3 15 -7 15
-10z m6765 -43 c3 -5 1 -10 -4 -10 -6 0 -11 5 -11 10 0 6 2 10 4 10 3 0 8 -4
11 -10z m-548 -295 c0 -8 -4 -12 -9 -9 -5 3 -6 10 -3 15 9 13 12 11 12 -6z
m31 -10 c-3 -3 -9 2 -12 12 -6 14 -5 15 5 6 7 -7 10 -15 7 -18z m-143 -5 c-3
-5 -12 -10 -18 -10 -7 0 -6 4 3 10 19 12 23 12 15 0z m-5545 -16 c0 -8 -5 -12
-10 -9 -6 4 -8 11 -5 16 9 14 15 11 15 -7z m140 -28 c0 -3 -4 -8 -10 -11 -5
-3 -10 -1 -10 4 0 6 5 11 10 11 6 0 10 -2 10 -4z m5040 -12 c0 -8 -19 -13 -24
-6 -3 5 1 9 9 9 8 0 15 -2 15 -3z m80 -4 c0 -5 -2 -10 -4 -10 -3 0 -8 5 -11
10 -3 6 -1 10 4 10 6 0 11 -4 11 -10z m-4410 -25 c0 -7 -30 -13 -34 -7 -3 4 4
9 15 9 10 1 19 0 19 -2z m210 -9 c0 -3 -4 -8 -10 -11 -5 -3 -10 -1 -10 4 0 6
5 11 10 11 6 0 10 -2 10 -4z m3924 -4 c3 -5 -1 -9 -9 -9 -8 0 -12 4 -9 9 3 4
7 8 9 8 2 0 6 -4 9 -8z m-3660 -28 c3 -8 2 -12 -4 -9 -6 3 -10 10 -10 16 0 14
7 11 14 -7z m211 -26 c5 4 5 1 1 -6 -6 -10 -11 -10 -22 -1 -8 6 -14 14 -14 16
0 3 6 0 13 -6 8 -6 18 -7 22 -3z m2005 -30 c0 -4 -4 -8 -9 -8 -6 0 -12 4 -15
8 -3 5 1 9 9 9 8 0 15 -4 15 -9z m-1700 -2 c0 -3 -4 -8 -10 -11 -5 -3 -10 -1
-10 4 0 6 5 11 10 11 6 0 10 -2 10 -4z m81 -13 c13 -16 12 -17 -3 -4 -17 13
-22 21 -14 21 2 0 10 -8 17 -17z m60 0 c13 -16 12 -17 -3 -4 -10 7 -18 15 -18
17 0 8 8 3 21 -13z m1399 13 c0 -2 -8 -10 -17 -17 -16 -13 -17 -12 -4 4 13 16
21 21 21 13z m96 -4 c-8 -7 -66 -10 -70 -3 -2 3 13 7 35 7 22 1 37 -1 35 -4z
m-1006 -37 c18 3 20 2 10 -10 -9 -10 -17 -12 -30 -5 -9 5 -20 7 -22 4 -3 -3
-8 2 -12 11 -4 12 -2 14 13 6 10 -6 28 -8 41 -6z m165 6 c-3 -5 -1 -12 5 -16
5 -3 10 -1 10 6 0 7 3 10 6 6 3 -3 3 -11 -1 -17 -5 -8 -11 -8 -21 1 -12 10
-11 29 2 29 3 0 3 -4 -1 -9z m160 0 c-3 -5 -1 -12 5 -16 5 -3 10 -1 10 6 0 7
3 10 6 6 3 -3 3 -11 -1 -17 -5 -8 -11 -8 -21 1 -12 10 -11 29 2 29 3 0 3 -4
-1 -9z m-95 -13 c0 -4 -4 -8 -9 -8 -6 0 -12 4 -15 8 -3 5 1 9 9 9 8 0 15 -4
15 -9z m74 -4 c3 -8 2 -12 -4 -9 -6 3 -10 10 -10 16 0 14 7 11 14 -7z"/>
<path d="M4786 5303 c-4 -9 -1 -21 5 -27 9 -8 10 -8 5 2 -4 7 -2 19 4 27 7 9
8 15 2 15 -5 0 -13 -8 -16 -17z"/>
<path d="M2826 5252 c-3 -5 1 -9 9 -9 8 0 12 4 9 9 -3 4 -7 8 -9 8 -2 0 -6 -4
-9 -8z"/>
<path d="M2833 5213 c0 -11 7 -20 14 -20 10 0 10 4 1 16 -7 9 -13 18 -15 20
-1 2 -1 -5 0 -16z"/>
<path d="M3196 5178 c3 -5 10 -6 15 -3 13 9 11 12 -6 12 -8 0 -12 -4 -9 -9z"/>
<path d="M2826 5092 c-3 -5 1 -9 9 -9 8 0 12 4 9 9 -3 4 -7 8 -9 8 -2 0 -6 -4
-9 -8z"/>
<path d="M2833 5053 c0 -11 7 -20 14 -20 10 0 10 4 1 16 -7 9 -13 18 -15 20
-1 2 -1 -5 0 -16z"/>
<path d="M2829 4746 c5 -6 7 -21 5 -33 -2 -13 0 -23 5 -23 15 0 23 18 12 25
-5 3 -8 14 -6 24 2 10 -3 18 -11 18 -8 0 -10 -4 -5 -11z"/>
<path d="M2824 4582 c3 -5 0 -13 -6 -15 -9 -4 -10 -6 -1 -6 17 -1 25 16 12 25
-7 4 -9 3 -5 -4z"/>
<path d="M1476 4257 c3 -10 9 -15 12 -12 3 3 0 11 -7 18 -10 9 -11 8 -5 -6z"/>
<path d="M2490 4172 c0 -15 11 -21 27 -15 12 5 12 7 1 14 -17 11 -28 11 -28 1z"/>
<path d="M2685 4170 c-3 -5 -1 -10 4 -10 6 0 11 5 11 10 0 6 -2 10 -4 10 -3 0
-8 -4 -11 -10z"/>
<path d="M4640 4170 c-13 -8 -12 -10 3 -10 9 0 17 5 17 10 0 12 -1 12 -20 0z"/>
<path d="M5575 4079 c-4 -6 -5 -12 -2 -15 2 -3 7 2 10 11 7 17 1 20 -8 4z"/>
<path d="M5705 3921 c-3 -5 -2 -12 3 -15 5 -3 9 1 9 9 0 17 -3 19 -12 6z"/>
<path d="M1654 3839 c-4 -7 -3 -9 4 -5 5 3 12 0 15 -6 2 -7 7 -10 11 -7 4 3 0
12 -8 18 -11 9 -16 9 -22 0z"/>
<path d="M5472 3664 c-7 -8 -8 -14 -3 -14 10 0 25 19 20 25 -2 1 -10 -3 -17
-11z"/>
<path d="M1750 3616 c0 -2 7 -7 16 -10 8 -3 12 -2 9 4 -6 10 -25 14 -25 6z"/>
<path d="M1780 3565 c-7 -9 -11 -17 -9 -20 3 -2 10 5 17 15 14 24 10 26 -8 5z"/>
<path d="M1661 3114 c0 -11 3 -14 6 -6 3 7 2 16 -1 19 -3 4 -6 -2 -5 -13z"/>
<path d="M5237 2869 c4 -13 8 -18 11 -10 2 7 -1 18 -6 23 -8 8 -9 4 -5 -13z"/>
<path d="M5830 2720 c-9 -6 -10 -10 -3 -10 6 0 15 5 18 10 8 12 4 12 -15 0z"/>
<path d="M5605 2520 c-10 -11 -15 -20 -11 -20 11 0 39 30 34 36 -3 2 -13 -5
-23 -16z"/>
<path d="M5439 2303 c-12 -16 -12 -17 2 -6 9 7 19 10 22 6 4 -3 7 -1 7 5 0 17
-16 15 -31 -5z"/>
<path d="M1316 2265 c-3 -8 -1 -15 4 -15 6 0 10 7 10 15 0 8 -2 15 -4 15 -2 0
-6 -7 -10 -15z"/>
<path d="M1369 2263 c-13 -16 -12 -17 4 -4 9 7 17 15 17 17 0 8 -8 3 -21 -13z"/>
<path d="M1455 2270 c-3 -5 -13 -7 -23 -4 -14 5 -14 4 -3 -4 15 -11 41 -5 41
9 0 12 -7 11 -15 -1z"/>
<path d="M1203 2225 c0 -8 4 -12 9 -9 5 3 6 10 3 15 -9 13 -12 11 -12 -6z"/>
<path d="M6121 2221 c-8 -5 -23 -8 -34 -5 -11 2 -17 0 -13 -4 13 -12 63 -8 63
5 0 7 -1 13 -1 13 -1 0 -7 -4 -15 -9z"/>
<path d="M6153 2215 c0 -8 4 -12 9 -9 5 3 6 10 3 15 -9 13 -12 11 -12 -6z"/>
<path d="M965 2209 c-3 -4 2 -6 10 -5 21 3 28 13 10 13 -9 0 -18 -4 -20 -8z"/>
<path d="M585 2119 c-4 -6 -5 -12 -2 -15 2 -3 7 2 10 11 7 17 1 20 -8 4z"/>
<path d="M610 2119 c0 -5 5 -7 10 -4 6 3 10 8 10 11 0 2 -4 4 -10 4 -5 0 -10
-5 -10 -11z"/>
<path d="M6640 2086 c0 -2 7 -9 15 -16 9 -7 15 -8 15 -2 0 5 -7 12 -15 16 -8
3 -15 4 -15 2z"/>
<path d="M6851 2025 c-2 -24 14 -33 29 -17 13 14 12 15 -2 9 -9 -3 -19 -1 -22
6 -2 7 -5 8 -5 2z"/>
<path d="M290 1668 c0 -9 5 -20 10 -23 13 -8 13 5 0 25 -8 13 -10 13 -10 -2z"/>
<path d="M6690 1609 c0 -5 5 -7 10 -4 6 3 10 8 10 11 0 2 -4 4 -10 4 -5 0 -10
-5 -10 -11z"/>
<path d="M588 1523 c7 -3 16 -2 19 1 4 3 -2 6 -13 5 -11 0 -14 -3 -6 -6z"/>
<path d="M6397 1513 c-11 -11 -8 -20 7 -20 8 0 12 6 9 14 -6 15 -7 15 -16 6z"/>
<path d="M6086 1468 c3 -5 10 -6 15 -3 13 9 11 12 -6 12 -8 0 -12 -4 -9 -9z"/>
<path d="M710 1459 c0 -4 6 -9 13 -12 8 -3 14 0 14 7 0 7 -6 13 -14 13 -7 0
-13 -4 -13 -8z"/>
<path d="M916 1422 c-3 -5 1 -9 9 -9 8 0 12 4 9 9 -3 4 -7 8 -9 8 -2 0 -6 -4
-9 -8z"/>
<path d="M1150 1410 c0 -6 4 -9 9 -6 5 4 12 1 14 -4 3 -6 4 -5 3 2 -3 15 -26
23 -26 8z"/>
<path d="M1396 1411 c-4 -5 -2 -12 3 -15 5 -4 12 -2 15 3 4 5 2 12 -3 15 -5 4
-12 2 -15 -3z"/>
<path d="M1435 1400 c3 -5 8 -10 11 -10 2 0 4 5 4 10 0 6 -5 10 -11 10 -5 0
-7 -4 -4 -10z"/>
<path d="M1565 1393 c-3 -10 0 -11 14 -3 14 7 21 6 24 -3 4 -9 6 -9 6 1 1 7 5
11 10 7 5 -3 12 -2 15 3 2 4 -11 8 -29 8 -19 0 -37 -6 -40 -13z"/>
<path d="M5697 1403 c-4 -3 -7 -11 -7 -17 0 -6 5 -5 12 2 6 6 9 14 7 17 -3 3
-9 2 -12 -2z"/>
<path d="M1916 1372 c-3 -5 1 -9 9 -9 8 0 12 4 9 9 -3 4 -7 8 -9 8 -2 0 -6 -4
-9 -8z"/>
<path d="M2027 1355 c7 -19 30 -26 30 -10 0 8 -8 16 -18 18 -11 3 -16 0 -12
-8z"/>
<path d="M2260 1316 c14 -14 37 -16 37 -2 0 7 -11 12 -24 12 -15 0 -20 -3 -13
-10z"/>
<path d="M4513 1315 c0 -8 4 -12 9 -9 5 3 6 10 3 15 -9 13 -12 11 -12 -6z"/>
<path d="M5062 1317 c-8 -10 -6 -13 9 -14 19 -2 26 11 10 21 -5 3 -14 0 -19
-7z"/>
<path d="M5240 1321 c0 -6 4 -13 10 -16 6 -3 7 1 4 9 -7 18 -14 21 -14 7z"/>
<path d="M2395 1310 c-2 -3 5 -7 16 -7 10 -1 19 2 19 6 0 9 -29 10 -35 1z"/>
<path d="M4320 1310 c-12 -7 -10 -9 7 -7 12 0 19 5 17 9 -6 10 -6 10 -24 -2z"/>
<path d="M4420 1310 c-8 -5 0 -7 18 -7 17 1 29 4 26 6 -8 9 -31 9 -44 1z"/>
<path d="M4870 1312 c0 -4 10 -9 22 -9 18 -2 20 0 8 7 -18 12 -30 13 -30 2z"/>
<path d="M4985 1309 c-3 -4 2 -6 10 -5 21 3 28 13 10 13 -9 0 -18 -4 -20 -8z"/>
<path d="M5154 1312 c4 -3 14 -7 22 -8 9 -1 13 0 10 4 -4 3 -14 7 -22 8 -9 1
-13 0 -10 -4z"/>
<path d="M3696 1268 c3 -4 -13 -6 -35 -4 -22 2 -38 0 -36 -4 4 -6 74 -7 108
-1 18 3 4 17 -17 17 -14 0 -23 -3 -20 -8z"/>
<path d="M3515 1259 c-4 -6 -5 -12 -2 -15 2 -3 7 2 10 11 7 17 1 20 -8 4z"/>
<path d="M3230 1250 c0 -5 5 -10 10 -10 6 0 10 5 10 10 0 6 -4 10 -10 10 -5 0
-10 -4 -10 -10z"/>
</g>
</svg>
